<svg width="229" height="211" viewBox="0 0 229 211" fill="none" xmlns="http://www.w3.org/2000/svg">
<path fill-rule="evenodd" clip-rule="evenodd" d="M63.9656 126.859C63.9656 126.859 48.544 130.384 42.1825 130.757C35.821 131.131 32.6402 130.384 22.5369 125.343C12.4336 120.303 6.07207 112.462 2.33025 105.742C-1.41156 99.0218 0.226107 97.3041 1.27854 95.1763C2.33025 93.0486 5.13697 91.7417 7.38192 90.9953C9.62757 90.2482 48.0448 81.0822 53.2209 80.1677C58.397 79.2538 78.3085 75.2069 78.3085 75.2069C78.3085 75.2069 92.1373 38.5395 93.8212 34.8054C95.5051 31.0721 105.132 7.00101 111.545 3.63588C117.957 0.270741 129.183 -1.78254 138.538 2.13742C147.893 6.05809 154.628 16.1379 155.564 25.6586C156.499 35.1793 142.259 70.4135 142.259 70.4135C142.259 70.4135 171.654 68.4071 185.686 70.2745C199.718 72.1404 208.887 74.9408 217.306 81.1014C225.725 87.2612 228.157 95.2884 228.906 104.623C229.654 113.956 225.725 113.769 224.229 114.329C222.732 114.89 176.442 110.51 166.228 110.782C156.015 111.056 128.424 113.817 128.424 113.817C128.424 113.817 119.08 141.397 116.46 152.971C113.841 164.545 109.912 183.399 109.163 189.187C108.415 194.973 107.666 204.494 102.989 208.413C98.3118 212.334 83.1568 211.961 74.3634 206.173C65.5692 200.387 51.537 180.973 51.35 168.092C51.163 155.211 63.9656 126.859 63.9656 126.859Z" fill="#FC4712"/>
</svg>
